<?xml version="1.0" encoding="UTF-8" standalone="no" ?>
<!DOCTYPE svg PUBLIC "-//W3C//DTD SVG 1.1//EN" "http://www.w3.org/Graphics/SVG/1.1/DTD/svg11.dtd">
<svg xmlns="http://www.w3.org/2000/svg" xmlns:xlink="http://www.w3.org/1999/xlink" version="1.1" width="800" height="600" viewBox="0 0 800 600" xml:space="preserve">
<desc>Created with Fabric.js 3.6.3</desc>
<defs>
</defs>
<g transform="matrix(0.74 0 0 0.74 400.44 300.69)"  >
<circle style="stroke: rgb(0,0,0); stroke-width: 0.1; stroke-dasharray: none; stroke-linecap: butt; stroke-dashoffset: 0; stroke-linejoin: miter; stroke-miterlimit: 4; fill: rgb(219,43,148); fill-rule: nonzero; opacity: 1;"  cx="0" cy="0" r="400" />
</g>
<g transform="matrix(0.51 0 0 0.51 375.25 296.25)"  >
<g style=""   >
		<g transform="matrix(1 0 0 1 -89.49 -166.9)"  >
<path style="stroke: rgb(0,0,0); stroke-width: 0.1; stroke-dasharray: none; stroke-linecap: butt; stroke-dashoffset: 0; stroke-linejoin: miter; stroke-miterlimit: 4; fill: rgb(239,202,165); fill-rule: nonzero; opacity: 1;"  transform=" translate(-410.5, -333.1)" d="M 367.9 301.9 c -30.9 -0.6 -39.8 -10.7 -50.5 -8.4 c -10.7 2.3 -7.3 21.1 -2.7 30.3 c 4.6 9.2 17.6 17 39 17 c 21.4 0 33.6 10.3 43 15 c 14 7 39.6 41.5 71.7 46.6 s 42.3 -84.7 42.3 -84.7 v -44.9 l -31.6 -9.2 c -1.5 30.6 -5.1 91.8 -9.2 96.9 c -4.1 5.1 -64.8 -32.1 -72.4 -38.3 c -7.7 -6.1 -7.3 -18 -9.2 -26.1 c -1.9 -8.2 -9.8 -23.7 -14.5 -26.6 c -4.7 -2.9 -10.3 7.1 -6.5 15.6 C 371.1 293.5 375 302.1 367.9 301.9 z" stroke-linecap="round" />
</g>
		<g transform="matrix(1 0 0 1 2.25 -253.35)"  >
<path style="stroke: rgb(0,0,0); stroke-width: 0.1; stroke-dasharray: none; stroke-linecap: butt; stroke-dashoffset: 0; stroke-linejoin: miter; stroke-miterlimit: 4; fill: rgb(255,255,255); fill-rule: nonzero; opacity: 1;"  transform=" translate(-502.25, -246.65)" d="M 527.9 212.3 c -13.8 3.7 -20.9 5.9 -30.3 12.7 c -9.5 6.8 -11.5 14.8 -15.6 23.2 c -4.1 8.4 -5.4 20.8 -5.4 20.8 c 5.7 7 22.2 12 22.2 12 L 527.9 212.3 z" stroke-linecap="round" />
</g>
		<g transform="matrix(1 0 0 1 41.15 220.76)"  >
<path style="stroke: rgb(0,0,0); stroke-width: 0.1; stroke-dasharray: none; stroke-linecap: butt; stroke-dashoffset: 0; stroke-linejoin: miter; stroke-miterlimit: 4; fill: rgb(239,202,165); fill-rule: nonzero; opacity: 1;"  transform=" translate(-541.15, -720.76)" d="M 532.5 880.8 c 11.7 -3.5 36.8 -17.3 48.2 -31.9 c -0.7 -3.2 -1.6 -4.9 -4.3 -9.4 c -4 -6.7 -5.4 -9.9 -5.4 -15.5 c 0 -115.9 12.2 -256.8 12.2 -256.8 l -69.9 -8.6 c -1.1 79 13 265.4 13 265.4 c 1.1 15.5 -14.2 30 -27.2 44.6 C 507.3 885.2 520.4 884.4 532.5 880.8 z" stroke-linecap="round" />
</g>
		<g transform="matrix(1 0 0 1 31.88 379.77)"  >
<path style="stroke: rgb(0,0,0); stroke-width: 0.1; stroke-dasharray: none; stroke-linecap: butt; stroke-dashoffset: 0; stroke-linejoin: miter; stroke-miterlimit: 4; fill: rgb(229,229,228); fill-rule: nonzero; opacity: 1;"  transform=" translate(-531.88, -879.77)" d="M 580.7 848.8 c -11.4 14.6 -36.5 28.4 -48.2 31.9 c -12.1 3.6 -25.1 4.4 -33.3 -12.3 c -7.8 8.7 -14.8 17.5 -16.9 26.6 c -2.2 8.5 1.4 10.6 5 12.7 c 3.6 2.1 9.7 6.2 29.8 -1.2 c 20.1 -7.5 47.8 -24.7 55.7 -31.2 c 7.8 -6.5 10.3 -12.2 9 -20.5 C 581.4 852.2 581.1 850.3 580.7 848.8 z" stroke-linecap="round" />
</g>
		<g transform="matrix(1 0 0 1 94.95 251.75)"  >
<path style="stroke: rgb(0,0,0); stroke-width: 0.1; stroke-dasharray: none; stroke-linecap: butt; stroke-dashoffset: 0; stroke-linejoin: miter; stroke-miterlimit: 4; fill: rgb(239,202,165); fill-rule: nonzero; opacity: 1;"  transform=" translate(-594.95, -751.75)" d="M 586.3 911.8 c 11.7 -3.5 36.8 -17.3 48.2 -31.9 c -0.7 -3.2 -1.6 -4.9 -4.3 -9.4 c -4 -6.7 -5.4 -9.9 -5.4 -15.5 c 0 -115.9 12.2 -256.8 12.2 -256.8 l -69.9 -8.6 c -1.1 79 13 265.4 13 265.4 c 1.1 15.5 -14.2 30 -27.2 44.6 C 561.2 916.1 574.2 915.4 586.3 911.8 z" stroke-linecap="round" />
</g>
		<g transform="matrix(1 0 0 1 85.78 410.77)"  >
<path style="stroke: rgb(0,0,0); stroke-width: 0.1; stroke-dasharray: none; stroke-linecap: butt; stroke-dashoffset: 0; stroke-linejoin: miter; stroke-miterlimit: 4; fill: rgb(229,229,228); fill-rule: nonzero; opacity: 1;"  transform=" translate(-585.78, -910.77)" d="M 634.6 879.8 c -11.4 14.6 -36.5 28.4 -48.2 31.9 c -12.1 3.6 -25.1 4.4 -33.3 -12.3 c -7.8 8.7 -14.8 17.5 -16.9 26.6 c -2.2 8.5 1.4 10.6 5 12.7 c 3.6 2.1 9.7 6.2 29.8 -1.2 c 20.1 -7.5 47.8 -24.7 55.7 -31.2 c 7.8 -6.5 10.3 -12.2 9 -20.5 C 635.2 883.2 634.9 881.3 634.6 879.8 z" stroke-linecap="round" />
</g>
		<g transform="matrix(1 0 0 1 45.55 149.05)"  >
<path style="stroke: rgb(0,0,0); stroke-width: 0.1; stroke-dasharray: none; stroke-linecap: butt; stroke-dashoffset: 0; stroke-linejoin: miter; stroke-miterlimit: 4; fill: rgb(183,19,93); fill-rule: nonzero; opacity: 1;"  transform=" translate(-545.55, -649.05)" d="M 492.8 464.5 C 514.2 610.9 523 825.4 523 825.4 c 15.2 11.1 30.1 9.6 51.5 3.3 l 23.8 -346.4 L 492.8 464.5 z" stroke-linecap="round" />
</g>
		<g transform="matrix(1 0 0 1 114.44 166.33)"  >
<path style="stroke: rgb(0,0,0); stroke-width: 0.1; stroke-dasharray: none; stroke-linecap: butt; stroke-dashoffset: 0; stroke-linejoin: miter; stroke-miterlimit: 4; fill: rgb(196,18,91); fill-rule: nonzero; opacity: 1;"  transform=" translate(-614.43, -666.32)" d="M 563.5 491.9 c -2 78 12.3 363.9 12.3 363.9 c 19.3 6.7 38.6 7.2 52.8 -7 c 0.1 -276.9 47.5 -322.7 34.8 -365.5 C 654.8 454.3 563.5 491.9 563.5 491.9 z" stroke-linecap="round" />
</g>
		<g transform="matrix(1 0 0 1 87.8 -137.65)"  >
<path style="stroke: rgb(0,0,0); stroke-width: 0.1; stroke-dasharray: none; stroke-linecap: butt; stroke-dashoffset: 0; stroke-linejoin: miter; stroke-miterlimit: 4; fill: rgb(212,20,90); fill-rule: nonzero; opacity: 1;"  transform=" translate(-587.8, -362.36)" d="M 641.9 430.5 c 0 -66.6 40.8 -126.5 40.8 -126.5 c 0 -29.7 -8.9 -56.4 -88.7 -88.5 c -80.3 -32.3 -99 30.7 -99 53.8 c 0 17.8 16.5 98.7 16 130.9 c 0 0 -18.2 60.2 -18.1 64.2 c 0 1.2 0.4 2.4 1.1 3.4 c 20.6 27.2 92.7 75.5 155.3 34.7 c 10 -7.4 14.2 -11.9 16 -14.2 c 0.8 -1 1.2 -2.3 1.3 -3.5 C 666.6 484.8 641.9 430.7 641.9 430.5 z" stroke-linecap="round" />
</g>
		<g transform="matrix(1 0 0 1 85.53 -253.67)"  >
<path style="stroke: rgb(0,0,0); stroke-width: 0.1; stroke-dasharray: none; stroke-linecap: butt; stroke-dashoffset: 0; stroke-linejoin: miter; stroke-miterlimit: 4; fill: rgb(226,189,156); fill-rule: nonzero; opacity: 1;"  transform=" translate(-585.53, -246.33)" d="M 560.5 226.6 c -15.3 25.8 -4.7 36.5 4.4 41.4 c 9.4 5 28.3 -1.9 38.9 -9.8 c 7.5 -5.7 15.4 -25.7 14.4 -32.4 C 617.2 219 560.5 226.6 560.5 226.6 z" stroke-linecap="round" />
</g>
		<g transform="matrix(1 0 0 1 81.4 -344.2)"  >
<ellipse style="stroke: rgb(0,0,0); stroke-width: 0.1; stroke-dasharray: none; stroke-linecap: butt; stroke-dashoffset: 0; stroke-linejoin: miter; stroke-miterlimit: 4; fill: rgb(239,202,165); fill-rule: nonzero; opacity: 1;"  cx="0" cy="0" rx="60.9" ry="84.1" />
</g>
		<g transform="matrix(1 0 0 1 21.16 -165.6)"  >
<path style="stroke: rgb(0,0,0); stroke-width: 0.1; stroke-dasharray: none; stroke-linecap: butt; stroke-dashoffset: 0; stroke-linejoin: miter; stroke-miterlimit: 4; fill: rgb(212,20,90); fill-rule: nonzero; opacity: 1;"  transform=" translate(-521.16, -334.4)" d="M 500.6 282.4 c -3.5 48.9 -17.5 52.5 -9.6 74.4 c 8 21.9 33.6 29.6 33.6 29.6 l 26.3 -7.1 l 2.8 -54.6 L 500.6 282.4 z" stroke-linecap="round" />
</g>
		<g transform="matrix(1 0 0 1 160.23 -102.49)"  >
<path style="stroke: rgb(0,0,0); stroke-width: 0.1; stroke-dasharray: none; stroke-linecap: butt; stroke-dashoffset: 0; stroke-linejoin: miter; stroke-miterlimit: 4; fill: rgb(239,202,165); fill-rule: nonzero; opacity: 1;"  transform=" translate(-660.23, -397.51)" d="M 631.8 308 C 644 342.6 664 428.7 651 492.2 c 21.4 12.2 33.3 6.1 33.3 6.1 c 6.7 -47.8 7.9 -132.7 -12.6 -203.1 L 631.8 308 z" stroke-linecap="round" />
</g>
		<g transform="matrix(1 0 0 1 159.35 24.65)"  >
<path style="stroke: rgb(0,0,0); stroke-width: 0.1; stroke-dasharray: none; stroke-linecap: butt; stroke-dashoffset: 0; stroke-linejoin: miter; stroke-miterlimit: 4; fill: rgb(239,202,165); fill-rule: nonzero; opacity: 1;"  transform=" translate(-659.35, -524.65)" d="M 684.3 498.3 l -33.3 -6.1 c -4 8.6 -10.6 17.6 -12.9 24.1 c -1.7 4.8 -3.7 20.1 -3.7 20.1 c 7 5.2 8.4 -9.4 11.9 -10.7 c 3.5 -1.3 2.5 11.8 2.5 11.8 s 0 1.2 -0.2 3 l -6.2 3.3 c -2.6 1.4 -3.7 4.8 -2.5 7.7 l 1.2 2.8 c 0.6 1.5 2 2.5 3.5 2.7 c 0.1 0 0.3 0.1 0.4 0.1 h 4.6 c 1.5 0 2.9 -0.1 4.3 -0.4 l 8.4 -1.6 c 2.8 -0.5 5.4 -1.6 7.8 -3.1 l 3.2 -2 c 3.1 -3.3 9.1 -15 9.4 -17 C 683.3 526.9 684.3 498.3 684.3 498.3 z" stroke-linecap="round" />
</g>
		<g transform="matrix(1 0 0 1 153.45 -212.26)"  >
<path style="stroke: rgb(0,0,0); stroke-width: 0.1; stroke-dasharray: none; stroke-linecap: butt; stroke-dashoffset: 0; stroke-linejoin: miter; stroke-miterlimit: 4; fill: rgb(255,255,255); fill-rule: nonzero; opacity: 1;"  transform=" translate(-653.46, -287.74)" d="M 624.6 329.4 c 21.4 5.2 56 -9.6 64 -16.6 c -3.4 -21.3 -20 -66 -20 -66 c -7.3 -8.7 -31.4 16.6 -37.5 24.2 s -13.7 13.7 -12.7 26.3 C 619.4 309.9 624.6 329.4 624.6 329.4 z" stroke-linecap="round" />
</g>
		<g transform="matrix(1 0 0 1 95.02 -289.51)"  >
<path style="stroke: rgb(0,0,0); stroke-width: 0.1; stroke-dasharray: none; stroke-linecap: butt; stroke-dashoffset: 0; stroke-linejoin: miter; stroke-miterlimit: 4; fill: rgb(96,56,19); fill-rule: nonzero; opacity: 1;"  transform=" translate(-595.02, -210.49)" d="M 560.6 121.8 c 26.4 -7.5 42.9 11.3 41.2 92.2 c -1.7 80.9 27 127.8 -12 141.6 c 23.9 17 49.8 0.2 51.5 -11.4 c 1.7 -11.6 -3.6 -37.4 7 -51.4 c 10.6 -14 16 -15.4 20.9 -15.4 c 2.7 2.6 9.9 10 12.6 14.1 c 9 -24.8 12.2 -45.5 0 -82.2 c -12.2 -36.7 -15.7 -31.1 -15.1 -62.3 c 0.6 -31.2 -30.4 -81.7 -57.9 -81.1 c -24 -15.1 -59 -5.7 -72.3 7.4 c -13.3 13.1 -28.8 38.6 -31.5 58 c -2.8 19.4 -3.6 46.4 0 65.7 c 3.6 19.2 6.9 60.7 1.1 80.4 c -5.7 19.7 -10.6 45.7 2.3 55.1 c 12.9 9.5 28.4 8.2 31 4.7 c -14.9 0.9 -22.3 -14.1 -19.7 -18.9 s 28.1 -16.6 34.1 -28.6 c 4.1 -8.3 7.1 -29 -14 -69 c -19 -36 -19.9 -51.8 -19 -65 s 4.7 -28.7 13.5 -34.9 C 542.9 114.7 560.6 121.8 560.6 121.8 z" stroke-linecap="round" />
</g>
</g>
</g>
<g transform="matrix(0.06 0.03 -0.03 0.06 301.58 200.29)"  >
<g style=""   >
		<g transform="matrix(1 0 0 1 -0.1 30.2)" id="Layer_1"  >
<path style="stroke: rgb(0,0,0); stroke-width: 0.1; stroke-dasharray: none; stroke-linecap: butt; stroke-dashoffset: 0; stroke-linejoin: miter; stroke-miterlimit: 4; fill: rgb(103,109,103); fill-rule: nonzero; opacity: 1;"  transform=" translate(-499.9, -530.2)" d="M 810.1 536 L 375 284.7 c -13.8 -7.9 -36.3 -7.9 -50 0 L 125.6 399.8 l -61.2 -12.2 v 56 c 0 5.2 3.4 10.5 10.3 14.4 l 550.3 317.7 c 13.8 7.9 36.3 7.9 50 0 l 250.1 -144.4 c 6.9 -4 10.3 -9.2 10.3 -14.4 v -56 L 810.1 536 z" stroke-linecap="round" />
</g>
		<g transform="matrix(1 0 0 1 -0.1 25.7)" id="Layer_1"  >
<path style="stroke: rgb(0,0,0); stroke-width: 0.1; stroke-dasharray: none; stroke-linecap: butt; stroke-dashoffset: 0; stroke-linejoin: miter; stroke-miterlimit: 4; fill: rgb(122,124,122); fill-rule: nonzero; opacity: 1;"  transform=" translate(-499.9, -525.7)" d="M 810.1 531.4 L 375 280.2 c -13.8 -7.9 -36.3 -7.9 -50 0 L 125.6 395.3 l -61.2 -12.2 v 56 c 0 5.2 3.4 10.5 10.3 14.4 l 550.3 317.7 c 13.8 7.9 36.3 7.9 50 0 l 250.1 -144.4 c 6.9 -4 10.3 -9.2 10.3 -14.4 v -56 L 810.1 531.4 z" stroke-linecap="round" />
</g>
		<g transform="matrix(1 0 0 1 -0.1 25.7)" id="Layer_1"  >
<path style="stroke: rgb(0,0,0); stroke-width: 0.1; stroke-dasharray: none; stroke-linecap: butt; stroke-dashoffset: 0; stroke-linejoin: miter; stroke-miterlimit: 4; fill: rgb(91,94,91); fill-rule: nonzero; opacity: 1;"  transform=" translate(-499.9, -525.7)" d="M 810.1 531.4 L 375 280.2 c -13.8 -7.9 -36.3 -7.9 -50 0 L 125.6 395.3 l -61.2 -12.2 l 560.6 388.1 c 13.8 7.9 36.3 7.9 50 0 l 250.1 -144.4 c 6.9 -4 10.3 -9.2 10.3 -14.4 v -56 L 810.1 531.4 z" stroke-linecap="round" />
</g>
		<g transform="matrix(1 0 0 1 275.3 97.96)" id="Layer_1"  >
<path style="stroke: rgb(0,0,0); stroke-width: 0.1; stroke-dasharray: none; stroke-linecap: butt; stroke-dashoffset: 0; stroke-linejoin: miter; stroke-miterlimit: 4; fill: rgb(78,81,78); fill-rule: nonzero; opacity: 1;"  transform=" translate(-775.3, -597.96)" d="M 810.1 531.4 l -195 -112.6 v 346.6 l 10 5.8 c 13.8 7.9 36.3 7.9 50 0 l 250.1 -144.4 c 6.9 -4 10.3 -9.2 10.3 -14.4 v -56 L 810.1 531.4 z" stroke-linecap="round" />
</g>
		<g transform="matrix(1 0 0 1 305.75 112.35)" id="Layer_1"  >
<path style="stroke: rgb(0,0,0); stroke-width: 0.1; stroke-dasharray: none; stroke-linecap: butt; stroke-dashoffset: 0; stroke-linejoin: miter; stroke-miterlimit: 4; fill: rgb(56,58,56); fill-rule: nonzero; opacity: 1;"  transform=" translate(-805.75, -612.35)" d="M 810.1 531.4 l -134.2 -77.5 v 316.9 l 249.4 -144 c 6.9 -4 10.3 -9.2 10.3 -14.4 v -56 L 810.1 531.4 z" stroke-linecap="round" />
</g>
		<g transform="matrix(1 0 0 1 0 -24.8)" id="Layer_1"  >
<path style="stroke: rgb(0,0,0); stroke-width: 0.1; stroke-dasharray: none; stroke-linecap: butt; stroke-dashoffset: 0; stroke-linejoin: miter; stroke-miterlimit: 4; fill: rgb(109,112,109); fill-rule: nonzero; opacity: 1;"  transform=" translate(-500, -475.2)" d="M 925.2 547.4 L 375 229.7 c -13.8 -7.9 -36.3 -7.9 -50 0 L 74.8 374.1 C 61 382 61 395 74.8 403 l 550.3 317.7 c 13.8 7.9 36.3 7.9 50 0 l 250.1 -144.4 C 939 568.3 939 555.3 925.2 547.4 z" stroke-linecap="round" />
</g>
		<g transform="matrix(1 0 0 1 0 -30.2)" id="Layer_1"  >
<path style="stroke: rgb(0,0,0); stroke-width: 0.1; stroke-dasharray: none; stroke-linecap: butt; stroke-dashoffset: 0; stroke-linejoin: miter; stroke-miterlimit: 4; fill: rgb(91,94,91); fill-rule: nonzero; opacity: 1;"  transform=" translate(-500, -469.8)" d="M 925.2 542 L 375 224.3 c -13.8 -7.9 -36.3 -7.9 -50 0 L 74.8 368.7 c -13.8 7.9 -13.8 20.9 0 28.9 l 550.3 317.7 c 13.8 7.9 36.3 7.9 50 0 l 250.1 -144.4 C 939 562.9 939 549.9 925.2 542 z" stroke-linecap="round" />
</g>
		<g transform="matrix(1 0 0 1 -145.05 -3.96)" id="Layer_1"  >
<path style="stroke: rgb(0,0,0); stroke-width: 0.1; stroke-dasharray: none; stroke-linecap: butt; stroke-dashoffset: 0; stroke-linejoin: miter; stroke-miterlimit: 4; fill: rgb(30,33,30); fill-rule: nonzero; opacity: 1;"  transform=" translate(-354.95, -496.04)" d="M 414.7 272 c -13.8 -7.9 -36.3 -7.9 -50 0 L 165.3 387.1 l -61.1 26 v 17.8 c 0 5.2 3.4 10.5 10.3 14.4 L 600.8 726 V 382.2 h 4.9 L 414.7 272 z" stroke-linecap="round" />
</g>
		<g transform="matrix(1 0 0 1 130.27 -30.2)" id="Layer_1"  >
<path style="stroke: rgb(0,0,0); stroke-width: 0.1; stroke-dasharray: none; stroke-linecap: butt; stroke-dashoffset: 0; stroke-linejoin: miter; stroke-miterlimit: 4; fill: rgb(71,76,71); fill-rule: nonzero; opacity: 1;"  transform=" translate(-630.27, -469.8)" d="M 925.2 542 L 375 224.3 c -13.8 -7.9 -36.3 -7.9 -50 0 l 300.1 491 c 13.8 7.9 36.3 7.9 50 0 l 250.1 -144.4 C 939 562.9 939 549.9 925.2 542 z" stroke-linecap="round" />
</g>
		<g transform="matrix(1 0 0 1 188.78 237)" id="Layer_1"  >
<path style="stroke: rgb(0,0,0); stroke-width: 0.1; stroke-dasharray: none; stroke-linecap: butt; stroke-dashoffset: 0; stroke-linejoin: miter; stroke-miterlimit: 4; fill: rgb(136,163,161); fill-rule: nonzero; opacity: 1;"  transform=" translate(-688.77, -737)" d="M 694.3 728.8 c -1.4 -2.4 -3.4 -3.8 -5.5 -3.8 c -2.2 0 -4.1 1.3 -5.5 3.8 c -1.2 2.2 -2 5.1 -2 8.2 c 0 3.1 0.7 6 2 8.2 c 1.4 2.4 3.4 3.8 5.5 3.8 c 2.2 0 4.1 -1.4 5.5 -3.8 C 696.9 740.7 696.9 733.2 694.3 728.8 z" stroke-linecap="round" />
</g>
		<g transform="matrix(1 0 0 1 187.93 237.05)" id="Layer_1"  >
<path style="stroke: rgb(0,0,0); stroke-width: 0.1; stroke-dasharray: none; stroke-linecap: butt; stroke-dashoffset: 0; stroke-linejoin: miter; stroke-miterlimit: 4; fill: rgb(30,33,30); fill-rule: nonzero; opacity: 1;"  transform=" translate(-687.92, -737.05)" d="M 692.7 729 c -1.4 -2.4 -3.3 -3.8 -5.5 -3.8 c -1.5 0.5 -2.9 1.7 -4 3.5 c -1.2 2.2 -2 5.1 -2 8.2 c 0 3.1 0.7 6 2 8.2 c 1.4 2.4 3.3 3.7 5.5 3.8 c 1.5 -0.5 2.9 -1.7 4 -3.5 C 695.3 741 695.3 733.5 692.7 729 z" stroke-linecap="round" />
</g>
		<g transform="matrix(1 0 0 1 358.36 130.9)" id="Layer_1"  >
<path style="stroke: rgb(0,0,0); stroke-width: 0.1; stroke-dasharray: none; stroke-linecap: butt; stroke-dashoffset: 0; stroke-linejoin: miter; stroke-miterlimit: 4; fill: rgb(136,163,161); fill-rule: nonzero; opacity: 1;"  transform=" translate(-858.36, -630.9)" d="M 860.9 627.2 c -0.6 -1.1 -1.5 -1.7 -2.5 -1.7 c -0.9 0 -1.8 0.6 -2.5 1.7 c -0.6 1 -0.9 2.3 -0.9 3.7 c 0 1.4 0.3 2.7 0.9 3.7 c 0.6 1.1 1.5 1.7 2.5 1.7 c 1 0 1.9 -0.6 2.5 -1.7 C 862 632.6 862 629.2 860.9 627.2 z" stroke-linecap="round" />
</g>
		<g transform="matrix(1 0 0 1 358.01 130.95)" id="Layer_1"  >
<path style="stroke: rgb(0,0,0); stroke-width: 0.1; stroke-dasharray: none; stroke-linecap: butt; stroke-dashoffset: 0; stroke-linejoin: miter; stroke-miterlimit: 4; fill: rgb(30,33,30); fill-rule: nonzero; opacity: 1;"  transform=" translate(-858.01, -630.95)" d="M 860.2 627.3 c -0.6 -1.1 -1.5 -1.7 -2.5 -1.7 c -0.7 0.2 -1.3 0.8 -1.8 1.6 c -0.6 1 -0.9 2.3 -0.9 3.7 c 0 1.4 0.3 2.7 0.9 3.7 c 0.6 1.1 1.5 1.7 2.5 1.7 c 0.7 -0.2 1.3 -0.8 1.8 -1.6 C 861.3 632.7 861.3 629.3 860.2 627.3 z" stroke-linecap="round" />
</g>
		<g transform="matrix(1 0 0 1 369.9 123.7)" id="Layer_1"  >
<path style="stroke: rgb(0,0,0); stroke-width: 0.1; stroke-dasharray: none; stroke-linecap: butt; stroke-dashoffset: 0; stroke-linejoin: miter; stroke-miterlimit: 4; fill: rgb(136,163,161); fill-rule: nonzero; opacity: 1;"  transform=" translate(-869.9, -623.7)" d="M 872.4 620 c -0.6 -1.1 -1.5 -1.7 -2.5 -1.7 c -1 0 -1.8 0.6 -2.5 1.7 c -0.6 1 -0.9 2.3 -0.9 3.7 c 0 1.4 0.3 2.7 0.9 3.7 c 0.6 1.1 1.5 1.7 2.5 1.7 c 1 0 1.9 -0.6 2.5 -1.7 C 873.6 625.4 873.6 622 872.4 620 z" stroke-linecap="round" />
</g>
		<g transform="matrix(1 0 0 1 369.55 123.75)" id="Layer_1"  >
<path style="stroke: rgb(0,0,0); stroke-width: 0.1; stroke-dasharray: none; stroke-linecap: butt; stroke-dashoffset: 0; stroke-linejoin: miter; stroke-miterlimit: 4; fill: rgb(30,33,30); fill-rule: nonzero; opacity: 1;"  transform=" translate(-869.55, -623.75)" d="M 871.7 620.1 c -0.6 -1.1 -1.5 -1.7 -2.5 -1.7 c -0.7 0.2 -1.3 0.8 -1.8 1.6 c -0.6 1 -0.9 2.3 -0.9 3.7 c 0 1.4 0.3 2.7 0.9 3.7 c 0.6 1.1 1.5 1.7 2.5 1.7 c 0.7 -0.2 1.3 -0.8 1.8 -1.6 C 872.9 625.5 872.9 622.1 871.7 620.1 z" stroke-linecap="round" />
</g>
		<g transform="matrix(1 0 0 1 381.5 116.5)" id="Layer_1"  >
<path style="stroke: rgb(0,0,0); stroke-width: 0.1; stroke-dasharray: none; stroke-linecap: butt; stroke-dashoffset: 0; stroke-linejoin: miter; stroke-miterlimit: 4; fill: rgb(136,163,161); fill-rule: nonzero; opacity: 1;"  transform=" translate(-881.5, -616.5)" d="M 884 612.8 c -0.6 -1.1 -1.5 -1.7 -2.5 -1.7 c -1 0 -1.8 0.6 -2.5 1.7 c -0.6 1 -0.9 2.3 -0.9 3.7 c 0 1.4 0.3 2.7 0.9 3.7 c 0.6 1.1 1.5 1.7 2.5 1.7 c 1 0 1.9 -0.6 2.5 -1.7 C 885.2 618.2 885.2 614.8 884 612.8 z" stroke-linecap="round" />
</g>
		<g transform="matrix(1 0 0 1 381.11 116.55)" id="Layer_1"  >
<path style="stroke: rgb(0,0,0); stroke-width: 0.1; stroke-dasharray: none; stroke-linecap: butt; stroke-dashoffset: 0; stroke-linejoin: miter; stroke-miterlimit: 4; fill: rgb(30,33,30); fill-rule: nonzero; opacity: 1;"  transform=" translate(-881.11, -616.55)" d="M 883.3 612.9 c -0.6 -1.1 -1.5 -1.7 -2.5 -1.7 c -0.7 0.2 -1.3 0.8 -1.8 1.6 c -0.6 1 -0.9 2.3 -0.9 3.7 c 0 1.4 0.3 2.7 0.9 3.7 c 0.6 1.1 1.5 1.7 2.5 1.7 c 0.7 -0.2 1.3 -0.8 1.8 -1.6 C 884.4 618.3 884.4 614.9 883.3 612.9 z" stroke-linecap="round" />
</g>
		<g transform="matrix(1 0 0 1 393.06 109.25)" id="Layer_1"  >
<path style="stroke: rgb(0,0,0); stroke-width: 0.1; stroke-dasharray: none; stroke-linecap: butt; stroke-dashoffset: 0; stroke-linejoin: miter; stroke-miterlimit: 4; fill: rgb(136,163,161); fill-rule: nonzero; opacity: 1;"  transform=" translate(-893.06, -609.25)" d="M 895.6 605.6 c -0.6 -1.1 -1.5 -1.7 -2.5 -1.7 c -1 0 -1.8 0.6 -2.5 1.7 c -0.6 1 -0.9 2.3 -0.9 3.7 c 0 1.4 0.3 2.7 0.9 3.6 c 0.6 1.1 1.5 1.7 2.5 1.7 c 1 0 1.9 -0.6 2.5 -1.7 C 896.7 611 896.7 607.6 895.6 605.6 z" stroke-linecap="round" />
</g>
		<g transform="matrix(1 0 0 1 392.65 109.3)" id="Layer_1"  >
<path style="stroke: rgb(0,0,0); stroke-width: 0.1; stroke-dasharray: none; stroke-linecap: butt; stroke-dashoffset: 0; stroke-linejoin: miter; stroke-miterlimit: 4; fill: rgb(30,33,30); fill-rule: nonzero; opacity: 1;"  transform=" translate(-892.65, -609.3)" d="M 894.8 605.7 c -0.6 -1.1 -1.5 -1.7 -2.5 -1.7 c -0.7 0.2 -1.3 0.8 -1.8 1.6 c -0.6 1 -0.9 2.3 -0.9 3.7 c 0 1.4 0.3 2.7 0.9 3.6 c 0.6 1.1 1.5 1.7 2.5 1.7 c 0.7 -0.2 1.3 -0.8 1.8 -1.6 C 896 611.1 896 607.7 894.8 605.7 z" stroke-linecap="round" />
</g>
		<g transform="matrix(1 0 0 1 404.6 102.1)" id="Layer_1"  >
<path style="stroke: rgb(0,0,0); stroke-width: 0.1; stroke-dasharray: none; stroke-linecap: butt; stroke-dashoffset: 0; stroke-linejoin: miter; stroke-miterlimit: 4; fill: rgb(136,163,161); fill-rule: nonzero; opacity: 1;"  transform=" translate(-904.6, -602.1)" d="M 907.1 598.4 c -0.6 -1.1 -1.5 -1.7 -2.5 -1.7 c -1 0 -1.8 0.6 -2.5 1.7 c -0.6 1 -0.9 2.3 -0.9 3.7 c 0 1.4 0.3 2.7 0.9 3.7 c 0.6 1.1 1.5 1.7 2.5 1.7 c 1 0 1.9 -0.6 2.5 -1.7 C 908.3 603.8 908.3 600.4 907.1 598.4 z" stroke-linecap="round" />
</g>
		<g transform="matrix(1 0 0 1 404.21 102.15)" id="Layer_1"  >
<path style="stroke: rgb(0,0,0); stroke-width: 0.1; stroke-dasharray: none; stroke-linecap: butt; stroke-dashoffset: 0; stroke-linejoin: miter; stroke-miterlimit: 4; fill: rgb(30,33,30); fill-rule: nonzero; opacity: 1;"  transform=" translate(-904.21, -602.15)" d="M 906.4 598.5 c -0.6 -1.1 -1.5 -1.7 -2.5 -1.7 c -0.7 0.2 -1.3 0.8 -1.8 1.6 c -0.6 1 -0.9 2.3 -0.9 3.7 c 0 1.4 0.3 2.7 0.9 3.7 c 0.6 1.1 1.5 1.7 2.5 1.7 c 0.7 -0.2 1.3 -0.8 1.8 -1.6 C 907.5 603.9 907.5 600.5 906.4 598.5 z" stroke-linecap="round" />
</g>
		<g transform="matrix(1 0 0 1 416.16 94.9)" id="Layer_1"  >
<path style="stroke: rgb(0,0,0); stroke-width: 0.1; stroke-dasharray: none; stroke-linecap: butt; stroke-dashoffset: 0; stroke-linejoin: miter; stroke-miterlimit: 4; fill: rgb(136,163,161); fill-rule: nonzero; opacity: 1;"  transform=" translate(-916.16, -594.9)" d="M 918.7 591.2 c -0.6 -1.1 -1.5 -1.7 -2.5 -1.7 c -1 0 -1.8 0.6 -2.5 1.7 c -0.6 1 -0.9 2.3 -0.9 3.7 c 0 1.4 0.3 2.7 0.9 3.7 c 0.6 1.1 1.5 1.7 2.5 1.7 c 1 0 1.9 -0.6 2.5 -1.7 C 919.8 596.6 919.8 593.2 918.7 591.2 z" stroke-linecap="round" />
</g>
		<g transform="matrix(1 0 0 1 415.81 94.95)" id="Layer_1"  >
<path style="stroke: rgb(0,0,0); stroke-width: 0.1; stroke-dasharray: none; stroke-linecap: butt; stroke-dashoffset: 0; stroke-linejoin: miter; stroke-miterlimit: 4; fill: rgb(30,33,30); fill-rule: nonzero; opacity: 1;"  transform=" translate(-915.81, -594.95)" d="M 918 591.3 c -0.6 -1.1 -1.5 -1.7 -2.5 -1.7 c -0.7 0.2 -1.3 0.8 -1.8 1.6 c -0.6 1 -0.9 2.3 -0.9 3.7 c 0 1.4 0.3 2.7 0.9 3.7 c 0.6 1.1 1.5 1.7 2.5 1.7 c 0.7 -0.2 1.3 -0.8 1.8 -1.6 C 919.1 596.7 919.1 593.3 918 591.3 z" stroke-linecap="round" />
</g>
		<g transform="matrix(1 0 0 1 358.36 149)" id="Layer_1"  >
<path style="stroke: rgb(0,0,0); stroke-width: 0.1; stroke-dasharray: none; stroke-linecap: butt; stroke-dashoffset: 0; stroke-linejoin: miter; stroke-miterlimit: 4; fill: rgb(136,163,161); fill-rule: nonzero; opacity: 1;"  transform=" translate(-858.36, -649)" d="M 860.9 645.3 c -0.6 -1.1 -1.5 -1.7 -2.5 -1.7 c -0.9 0 -1.8 0.6 -2.5 1.7 c -0.6 1 -0.9 2.3 -0.9 3.7 c 0 1.4 0.3 2.7 0.9 3.7 c 0.6 1.1 1.5 1.7 2.5 1.7 c 1 0 1.9 -0.6 2.5 -1.7 C 862 650.6 862 647.2 860.9 645.3 z" stroke-linecap="round" />
</g>
		<g transform="matrix(1 0 0 1 358.01 149.05)" id="Layer_1"  >
<path style="stroke: rgb(0,0,0); stroke-width: 0.1; stroke-dasharray: none; stroke-linecap: butt; stroke-dashoffset: 0; stroke-linejoin: miter; stroke-miterlimit: 4; fill: rgb(30,33,30); fill-rule: nonzero; opacity: 1;"  transform=" translate(-858.01, -649.05)" d="M 860.2 645.4 c -0.6 -1.1 -1.5 -1.7 -2.5 -1.7 c -0.7 0.2 -1.3 0.8 -1.8 1.6 c -0.6 1 -0.9 2.3 -0.9 3.7 c 0 1.4 0.3 2.7 0.9 3.7 c 0.6 1.1 1.5 1.7 2.5 1.7 c 0.7 -0.2 1.3 -0.8 1.8 -1.6 C 861.3 650.7 861.3 647.4 860.2 645.4 z" stroke-linecap="round" />
</g>
		<g transform="matrix(1 0 0 1 369.9 141.8)" id="Layer_1"  >
<path style="stroke: rgb(0,0,0); stroke-width: 0.1; stroke-dasharray: none; stroke-linecap: butt; stroke-dashoffset: 0; stroke-linejoin: miter; stroke-miterlimit: 4; fill: rgb(136,163,161); fill-rule: nonzero; opacity: 1;"  transform=" translate(-869.9, -641.8)" d="M 872.4 638.1 c -0.6 -1.1 -1.5 -1.7 -2.5 -1.7 c -1 0 -1.8 0.6 -2.5 1.7 c -0.6 1 -0.9 2.3 -0.9 3.7 c 0 1.4 0.3 2.7 0.9 3.7 c 0.6 1.1 1.5 1.7 2.5 1.7 c 1 0 1.9 -0.6 2.5 -1.7 C 873.6 643.4 873.6 640.1 872.4 638.1 z" stroke-linecap="round" />
</g>
		<g transform="matrix(1 0 0 1 369.55 141.85)" id="Layer_1"  >
<path style="stroke: rgb(0,0,0); stroke-width: 0.1; stroke-dasharray: none; stroke-linecap: butt; stroke-dashoffset: 0; stroke-linejoin: miter; stroke-miterlimit: 4; fill: rgb(30,33,30); fill-rule: nonzero; opacity: 1;"  transform=" translate(-869.55, -641.85)" d="M 871.7 638.2 c -0.6 -1.1 -1.5 -1.7 -2.5 -1.7 c -0.7 0.2 -1.3 0.8 -1.8 1.6 c -0.6 1 -0.9 2.3 -0.9 3.7 c 0 1.4 0.3 2.7 0.9 3.7 c 0.6 1.1 1.5 1.7 2.5 1.7 c 0.7 -0.2 1.3 -0.8 1.8 -1.6 C 872.9 643.5 872.9 640.2 871.7 638.2 z" stroke-linecap="round" />
</g>
		<g transform="matrix(1 0 0 1 381.5 134.6)" id="Layer_1"  >
<path style="stroke: rgb(0,0,0); stroke-width: 0.1; stroke-dasharray: none; stroke-linecap: butt; stroke-dashoffset: 0; stroke-linejoin: miter; stroke-miterlimit: 4; fill: rgb(136,163,161); fill-rule: nonzero; opacity: 1;"  transform=" translate(-881.5, -634.6)" d="M 884 630.9 c -0.6 -1.1 -1.5 -1.7 -2.5 -1.7 c -1 0 -1.8 0.6 -2.5 1.7 c -0.6 1 -0.9 2.3 -0.9 3.7 c 0 1.4 0.3 2.7 0.9 3.7 c 0.6 1.1 1.5 1.7 2.5 1.7 c 1 0 1.9 -0.6 2.5 -1.7 C 885.2 636.2 885.2 632.9 884 630.9 z" stroke-linecap="round" />
</g>
		<g transform="matrix(1 0 0 1 381.11 134.65)" id="Layer_1"  >
<path style="stroke: rgb(0,0,0); stroke-width: 0.1; stroke-dasharray: none; stroke-linecap: butt; stroke-dashoffset: 0; stroke-linejoin: miter; stroke-miterlimit: 4; fill: rgb(30,33,30); fill-rule: nonzero; opacity: 1;"  transform=" translate(-881.11, -634.65)" d="M 883.3 631 c -0.6 -1.1 -1.5 -1.7 -2.5 -1.7 c -0.7 0.2 -1.3 0.8 -1.8 1.6 c -0.6 1 -0.9 2.3 -0.9 3.7 c 0 1.4 0.3 2.7 0.9 3.7 c 0.6 1.1 1.5 1.7 2.5 1.7 c 0.7 -0.2 1.3 -0.8 1.8 -1.6 C 884.4 636.3 884.4 633 883.3 631 z" stroke-linecap="round" />
</g>
		<g transform="matrix(1 0 0 1 393.06 127.4)" id="Layer_1"  >
<path style="stroke: rgb(0,0,0); stroke-width: 0.1; stroke-dasharray: none; stroke-linecap: butt; stroke-dashoffset: 0; stroke-linejoin: miter; stroke-miterlimit: 4; fill: rgb(136,163,161); fill-rule: nonzero; opacity: 1;"  transform=" translate(-893.06, -627.4)" d="M 895.6 623.7 c -0.6 -1.1 -1.5 -1.7 -2.5 -1.7 c -1 0 -1.8 0.6 -2.5 1.7 c -0.6 1 -0.9 2.3 -0.9 3.7 s 0.3 2.7 0.9 3.7 c 0.6 1.1 1.5 1.7 2.5 1.7 c 1 0 1.9 -0.6 2.5 -1.7 C 896.7 629 896.7 625.7 895.6 623.7 z" stroke-linecap="round" />
</g>
		<g transform="matrix(1 0 0 1 392.65 127.45)" id="Layer_1"  >
<path style="stroke: rgb(0,0,0); stroke-width: 0.1; stroke-dasharray: none; stroke-linecap: butt; stroke-dashoffset: 0; stroke-linejoin: miter; stroke-miterlimit: 4; fill: rgb(30,33,30); fill-rule: nonzero; opacity: 1;"  transform=" translate(-892.65, -627.45)" d="M 894.8 623.8 c -0.6 -1.1 -1.5 -1.7 -2.5 -1.7 c -0.7 0.2 -1.3 0.8 -1.8 1.6 c -0.6 1 -0.9 2.3 -0.9 3.7 s 0.3 2.7 0.9 3.7 c 0.6 1.1 1.5 1.7 2.5 1.7 c 0.7 -0.2 1.3 -0.8 1.8 -1.6 C 896 629.1 896 625.8 894.8 623.8 z" stroke-linecap="round" />
</g>
		<g transform="matrix(1 0 0 1 404.6 120.2)" id="Layer_1"  >
<path style="stroke: rgb(0,0,0); stroke-width: 0.1; stroke-dasharray: none; stroke-linecap: butt; stroke-dashoffset: 0; stroke-linejoin: miter; stroke-miterlimit: 4; fill: rgb(136,163,161); fill-rule: nonzero; opacity: 1;"  transform=" translate(-904.6, -620.2)" d="M 907.1 616.5 c -0.6 -1.1 -1.5 -1.7 -2.5 -1.7 c -1 0 -1.8 0.6 -2.5 1.7 c -0.6 1 -0.9 2.3 -0.9 3.7 c 0 1.4 0.3 2.7 0.9 3.7 c 0.6 1.1 1.5 1.7 2.5 1.7 c 1 0 1.9 -0.6 2.5 -1.7 C 908.3 621.8 908.3 618.5 907.1 616.5 z" stroke-linecap="round" />
</g>
		<g transform="matrix(1 0 0 1 404.21 120.25)" id="Layer_1"  >
<path style="stroke: rgb(0,0,0); stroke-width: 0.1; stroke-dasharray: none; stroke-linecap: butt; stroke-dashoffset: 0; stroke-linejoin: miter; stroke-miterlimit: 4; fill: rgb(30,33,30); fill-rule: nonzero; opacity: 1;"  transform=" translate(-904.21, -620.25)" d="M 906.4 616.6 c -0.6 -1.1 -1.5 -1.7 -2.5 -1.7 c -0.7 0.2 -1.3 0.8 -1.8 1.6 c -0.6 1 -0.9 2.3 -0.9 3.7 c 0 1.4 0.3 2.7 0.9 3.7 c 0.6 1.1 1.5 1.7 2.5 1.7 c 0.7 -0.2 1.3 -0.8 1.8 -1.6 C 907.5 621.9 907.5 618.6 906.4 616.6 z" stroke-linecap="round" />
</g>
		<g transform="matrix(1 0 0 1 416.16 113)" id="Layer_1"  >
<path style="stroke: rgb(0,0,0); stroke-width: 0.1; stroke-dasharray: none; stroke-linecap: butt; stroke-dashoffset: 0; stroke-linejoin: miter; stroke-miterlimit: 4; fill: rgb(136,163,161); fill-rule: nonzero; opacity: 1;"  transform=" translate(-916.16, -613)" d="M 918.7 609.3 c -0.6 -1.1 -1.5 -1.7 -2.5 -1.7 c -1 0 -1.8 0.6 -2.5 1.7 c -0.6 1 -0.9 2.3 -0.9 3.7 c 0 1.4 0.3 2.7 0.9 3.7 c 0.6 1.1 1.5 1.7 2.5 1.7 c 1 0 1.9 -0.6 2.5 -1.7 C 919.8 614.6 919.8 611.3 918.7 609.3 z" stroke-linecap="round" />
</g>
		<g transform="matrix(1 0 0 1 415.81 113.05)" id="Layer_1"  >
<path style="stroke: rgb(0,0,0); stroke-width: 0.1; stroke-dasharray: none; stroke-linecap: butt; stroke-dashoffset: 0; stroke-linejoin: miter; stroke-miterlimit: 4; fill: rgb(30,33,30); fill-rule: nonzero; opacity: 1;"  transform=" translate(-915.81, -613.05)" d="M 918 609.4 c -0.6 -1.1 -1.5 -1.7 -2.5 -1.7 c -0.7 0.2 -1.3 0.8 -1.8 1.6 c -0.6 1 -0.9 2.3 -0.9 3.7 c 0 1.4 0.3 2.7 0.9 3.7 c 0.6 1.1 1.5 1.7 2.5 1.7 c 0.7 -0.2 1.3 -0.8 1.8 -1.6 C 919.1 614.7 919.1 611.4 918 609.4 z" stroke-linecap="round" />
</g>
		<g transform="matrix(1 0 0 1 -157.2 -248.8)" id="Layer_1"  >
<ellipse style="stroke: rgb(0,0,0); stroke-width: 0.1; stroke-dasharray: none; stroke-linecap: butt; stroke-dashoffset: 0; stroke-linejoin: miter; stroke-miterlimit: 4; fill: rgb(55,58,55); fill-rule: nonzero; opacity: 1;"  cx="0" cy="0" rx="11.9" ry="6.9" />
</g>
		<g transform="matrix(1 0 0 1 -331.44 -157.45)" id="Layer_1"  >
<path style="stroke: rgb(0,0,0); stroke-width: 0.1; stroke-dasharray: none; stroke-linecap: butt; stroke-dashoffset: 0; stroke-linejoin: miter; stroke-miterlimit: 4; fill: rgb(36,221,36); fill-rule: nonzero; opacity: 1;"  transform=" translate(-168.56, -342.55)" d="M 175.1 338.8 c -3.6 -2.1 -9.4 -2.1 -13 0 c -3.6 2.1 -3.6 5.4 0 7.5 c 3.5 2.1 9.4 2.1 13 0 C 178.6 344.2 178.6 340.9 175.1 338.8 z" stroke-linecap="round" />
</g>
		<g transform="matrix(1 0 0 1 -356.76 -143.25)" id="Layer_1"  >
<path style="stroke: rgb(0,0,0); stroke-width: 0.1; stroke-dasharray: none; stroke-linecap: butt; stroke-dashoffset: 0; stroke-linejoin: miter; stroke-miterlimit: 4; fill: rgb(25,180,216); fill-rule: nonzero; opacity: 1;"  transform=" translate(-143.24, -356.75)" d="M 149.7 353 c -3.6 -2.1 -9.4 -2.1 -13 0 c -3.5 2.1 -3.5 5.4 0 7.5 c 3.6 2.1 9.4 2.1 13 0 C 153.3 358.4 153.3 355 149.7 353 z" stroke-linecap="round" />
</g>
		<g transform="matrix(1 0 0 1 -267.55 -193.15)" id="Layer_1"  >
<path style="stroke: rgb(0,0,0); stroke-width: 0.1; stroke-dasharray: none; stroke-linecap: butt; stroke-dashoffset: 0; stroke-linejoin: miter; stroke-miterlimit: 4; fill: rgb(30,33,30); fill-rule: nonzero; opacity: 1;"  transform=" translate(-232.45, -306.85)" d="M 267 286.9 c -3.8 -2.2 -10 -2.2 -13.8 0 l -55.3 31.9 c -3.8 2.2 -3.8 5.8 0 8 c 3.8 2.2 10 2.2 13.8 0 l 55.3 -31.9 C 270.8 292.7 270.8 289.1 267 286.9 z" stroke-linecap="round" />
</g>
		<g transform="matrix(1 0 0 1 -267.55 -197.05)" id="Layer_1"  >
<path style="stroke: rgb(0,0,0); stroke-width: 0.1; stroke-dasharray: none; stroke-linecap: butt; stroke-dashoffset: 0; stroke-linejoin: miter; stroke-miterlimit: 4; fill: rgb(55,58,55); fill-rule: nonzero; opacity: 1;"  transform=" translate(-232.45, -302.95)" d="M 267 283 c -3.8 -2.2 -10 -2.2 -13.8 0 l -55.3 31.9 c -3.8 2.2 -3.8 5.8 0 8 c 3.8 2.2 10 2.2 13.8 0 L 267 291 C 270.8 288.8 270.8 285.2 267 283 z" stroke-linecap="round" />
</g>
		<g transform="matrix(1 0 0 1 -267.65 -201.53)" id="Layer_1"  >
<path style="stroke: rgb(0,0,0); stroke-width: 0.1; stroke-dasharray: none; stroke-linecap: butt; stroke-dashoffset: 0; stroke-linejoin: miter; stroke-miterlimit: 4; fill: rgb(63,68,63); fill-rule: nonzero; opacity: 1;"  transform=" translate(-232.35, -298.47)" d="M 253.1 283 l -54 31.2 c 3.8 1.6 9.1 1.7 12.5 -0.3 l 54 -31.2 C 261.8 281.1 256.6 281.1 253.1 283 z" stroke-linecap="round" />
</g>
		<g transform="matrix(1 0 0 1 305.95 178.5)" id="Layer_1"  >
<polygon style="stroke: rgb(0,0,0); stroke-width: 0.1; stroke-dasharray: none; stroke-linecap: butt; stroke-dashoffset: 0; stroke-linejoin: miter; stroke-miterlimit: 4; fill: rgb(30,33,30); fill-rule: nonzero; opacity: 1;"  points="20.85,-22.3 -23.35,3.2 -24.65,5.4 -24.65,20.1 -20.75,22.3 23.35,-3.2 24.65,-5.4 24.65,-20.1 " />
</g>
		<g transform="matrix(1 0 0 1 308.5 167.6)" id="Layer_1"  >
<polygon style="stroke: rgb(0,0,0); stroke-width: 0.1; stroke-dasharray: none; stroke-linecap: butt; stroke-dashoffset: 0; stroke-linejoin: miter; stroke-miterlimit: 4; fill: rgb(30,33,30); fill-rule: nonzero; opacity: 1;"  points="20.8,-22.3 -23.3,3.2 -24.7,5.4 -24.7,20.1 -20.8,22.3 23.4,-3.2 24.7,-5.4 24.7,-20.1 " />
</g>
		<g transform="matrix(1 0 0 1 308.5 167.6)" id="Layer_1"  >
<polygon style="stroke: rgb(0,0,0); stroke-width: 0.1; stroke-dasharray: none; stroke-linecap: butt; stroke-dashoffset: 0; stroke-linejoin: miter; stroke-miterlimit: 4; fill: rgb(30,139,195); fill-rule: nonzero; opacity: 1;"  points="20.8,-22.3 -23.3,3.2 -24.7,5.4 -24.7,20.1 -20.8,22.3 24.7,-20.1 " />
</g>
		<g transform="matrix(1 0 0 1 308.55 167.6)" id="Layer_1"  >
<path style="stroke: rgb(0,0,0); stroke-width: 0.1; stroke-dasharray: none; stroke-linecap: butt; stroke-dashoffset: 0; stroke-linejoin: miter; stroke-miterlimit: 4; fill: rgb(91,99,91); fill-rule: nonzero; opacity: 1;"  transform=" translate(-808.55, -667.6)" d="M 828.1 643 l -44.2 25.5 l -2.6 4.5 v 14.7 l 7.7 4.5 l 44.2 -25.6 l 2.6 -4.5 v -14.7 L 828.1 643 z M 830.6 662.2 l -44.2 25.5 V 673 l 44.2 -25.5 V 662.2 z" stroke-linecap="round" />
</g>
		<g transform="matrix(1 0 0 1 1 -29.7)" id="Layer_1"  >
<polygon style="stroke: rgb(0,0,0); stroke-width: 0.1; stroke-dasharray: none; stroke-linecap: butt; stroke-dashoffset: 0; stroke-linejoin: miter; stroke-miterlimit: 4; fill: rgb(55,58,55); fill-rule: nonzero; opacity: 1;"  points="-99.2,-229.1 -396.8,-57.2 99.2,229.1 396.8,57.3 " />
</g>
		<g transform="matrix(1 0 0 1 149.8 -29.7)" id="Layer_1"  >
<polygon style="stroke: rgb(0,0,0); stroke-width: 0.1; stroke-dasharray: none; stroke-linecap: butt; stroke-dashoffset: 0; stroke-linejoin: miter; stroke-miterlimit: 4; fill: rgb(30,33,30); fill-rule: nonzero; opacity: 1;"  points="-248,-229.1 -49.6,229.1 248,57.3 " />
</g>
		<g transform="matrix(1 0 0 1 278.25 122.25)" id="Layer_1"  >
<path style="stroke: rgb(0,0,0); stroke-width: 0.1; stroke-dasharray: none; stroke-linecap: butt; stroke-dashoffset: 0; stroke-linejoin: miter; stroke-miterlimit: 4; fill: rgb(30,33,30); fill-rule: nonzero; opacity: 1;"  transform=" translate(-778.25, -622.25)" d="M 818.8 597.8 c -2.4 -1.4 -5.5 -2.1 -8.8 -2.1 c -3.3 0 -6.4 0.8 -8.8 2.1 l -63.5 36.7 c -2.7 1.5 -4.1 3.7 -4.1 6.1 c 0 2.4 1.5 4.5 4.1 6.1 c 2.4 1.4 5.5 2.1 8.8 2.1 c 3.3 0 6.4 -0.8 8.8 -2.1 l 63.5 -36.7 c 2.6 -1.5 4.1 -3.7 4.1 -6.1 C 823 601.5 821.5 599.3 818.8 597.8 z" stroke-linecap="round" />
</g>
		<g transform="matrix(1 0 0 1 278.25 122.2)" id="Layer_1"  >
<path style="stroke: rgb(0,0,0); stroke-width: 0.1; stroke-dasharray: none; stroke-linecap: butt; stroke-dashoffset: 0; stroke-linejoin: miter; stroke-miterlimit: 4; fill: rgb(30,139,195); fill-rule: nonzero; opacity: 1;"  transform=" translate(-778.25, -622.2)" d="M 819.7 596.3 c -2.6 -1.5 -6 -2.3 -9.6 -2.3 s -7 0.8 -9.7 2.4 L 736.9 633 c -3.2 1.8 -5 4.6 -5 7.5 c 0 3 1.8 5.7 5 7.5 c 2.6 1.5 6 2.4 9.6 2.4 c 3.6 0 7 -0.8 9.6 -2.3 l 63.5 -36.7 c 3.2 -1.8 5 -4.6 5 -7.5 C 824.7 600.9 822.8 598.2 819.7 596.3 z M 818 608.5 l -63.5 36.7 c -2.2 1.3 -5.1 1.9 -7.9 1.9 c -2.9 0 -5.8 -0.6 -7.9 -1.9 c -4.4 -2.5 -4.4 -6.6 0 -9.2 l 63.5 -36.7 c 2.2 -1.3 5.1 -1.9 7.9 -1.9 s 5.8 0.6 7.9 1.9 C 822.4 601.8 822.4 605.9 818 608.5 z" stroke-linecap="round" />
</g>
</g>
</g>
</svg>